<?xml version="1.0" encoding="UTF-8"?>
<svg width="353.3" height="248.43" version="1.1" xmlns="http://www.w3.org/2000/svg">
 <path d="m304.52 102.82-3e-3 2e-3h4e-3c-1.6236 2.454-2.213 5.4084-2.7078 8.4882-0.60669 3.7502-1.2461 7.3503-2.5723 10.879-1.5936 4.2305-4.2696 8.9439-8.9275 12.633a120.97 120.97 0 0 0-20.684-35.668c5.5503-2.2185 10.998-2.1839 15.476-1.4453 3.7202 0.61578 7.1575 1.8619 10.71 3.2117 2.9125 1.1124 5.7667 2.0793 8.7038 1.8992m-54.045-54.044-2e-3 0.0027 4e-3 -9.1e-4c-0.18009 2.9361 0.78679 5.7895 1.8983 8.7038 1.3498 3.5519 2.5959 6.9892 3.2126 10.709 0.73858 4.4824 0.77224 9.9363-1.4517 15.491a121.07 121.07 0 0 0-35.711-20.637c3.6974-4.6962 8.4318-7.3894 12.681-8.9894 3.5292-1.3262 7.1293-1.9656 10.881-2.5732 3.078-0.4939 6.0332-1.0824 8.4873-2.7069m45.529 107.26c5.8741 0.86865 10.548 3.6083 14.041 6.4735 2.9125 2.394 5.2665 5.1919 7.6687 8.138 1.9656 2.4177 3.9539 4.6825 6.5863 5.995h-26.521a121.88 121.88 0 0 0-1.7755-20.607m-193.18-107.26 2e-3 0.0018v-0.0027c2.454 1.6236 5.4093 2.2121 8.4882 2.7078 3.7502 0.60669 7.3503 1.2461 10.879 2.5714 4.2496 1.6 8.9848 4.2941 12.681 8.9903a120.97 120.97 0 0 0-35.711 20.637c-2.2239-5.5548-2.1912-11.009-1.4508-15.492 0.61579-3.7193 1.8619-7.1575 3.2117-10.71 1.1115-2.9125 2.0793-5.7667 1.8992-8.7029m-54.044 54.045 0.0027 9.1e-4 -9.1e-4 -3e-3c2.9361 0.17919 5.7904-0.7877 8.7038-1.8992 3.5519-1.3498 6.9892-2.5959 10.708-3.2126 4.4797-0.73767 9.9272-0.77132 15.477 1.4462a121.07 121.07 0 0 0-20.683 35.668c-4.658-3.6902-7.3339-8.4018-8.9275-12.633-1.3262-3.5292-1.9656-7.1293-2.5723-10.88-0.49481-3.0789-1.0842-6.0342-2.7078-8.4873m-19.779 73.823c2.6323-1.3125 4.6188-3.5765 6.5872-5.995 2.4004-2.9452 4.7544-5.7431 7.6668-8.1362 3.4937-2.8661 8.1644-5.6066 14.04-6.4744a121.88 121.88 0 0 0-1.7737 20.606zm147.65-147.65v0.0027l0.00182-0.0027c1.3125 2.6332 3.5774 4.6207 5.996 6.589 2.9452 2.4004 5.744 4.7544 8.1371 7.6668 2.8834 3.5155 5.6412 8.2235 6.4908 14.151a121.88 121.88 0 0 0-20.625-1.7564c-7.032 0-13.921 0.60578-20.626 1.7564 0.84954-5.9268 3.6074-10.636 6.4908-14.15 2.394-2.9134 5.1919-5.2674 8.1371-7.6687 2.4186-1.9665 4.6834-3.9549 5.9969-6.5881" fill="#fab60f"/>
 <g fill="#d52736">
  <path d="m152.02 176.68 9.114-0.0264c1.197-7.6978-1.1442-13.625-8.9312-12.21-6.5617 1.1916-13.61 7.7105-17.87 12.21l12.016-0.0527c1.3389-0.88048 3.9594-1.8846 5.0354-1.137 0.40294 0.28015 0.61306 0.67764 0.63489 1.2161"/>
  <path d="m193 176.65h11.37c0.5412-13.427-1.6218-27.293-7.8642-39.289-5.6776-10.915-15.063-18.334-27.213-20.127-17.737-2.6169-35.634 4.8917-50.765 15.634-16.474 11.696-30.073 27.581-41.956 43.783l15.02-0.0218c13.522-19.166 44.623-48.262 67.502-48.452 7.2912-0.06 14.704 1.6509 20.185 6.5408 3.9712 3.5437 8.7856 10.425 8.55 16.01-0.14008 3.3118-3.0789 4.3269-5.8968 3.3009-2.1894-0.79679-3.7356-2.7979-5.2674-4.9017-4.9781-6.8346-12.743-10.179-21.261-9.0139-10.158 1.3889-22.75 9.2768-30.872 16.451-7.0038 6.187-13.434 12.958-19.499 20.088h16.149c5.9186-7.1457 12.168-13.239 20.203-18.243 2.5423-1.5836 5.673-3.2581 8.9639-4.3896 8.3017-2.8534 16.563-2.1311 20.232 8.2053 1.4417 4.064 1.6536 7.6286 1.2334 14.161l-9.1e-4 0.26651h10.98l0.0282-0.33563c8e-3 -3.5774-0.07-5.9878 0.25286-9.5333 0.27743-3.0553 1.227-6.2215 4.0649-6.5981 6.0314-1.2634 5.7422 12.155 5.8604 16.467"/>
  <path d="m216.33 176.65h11.464c0.55484-12.458-0.51301-27.216-4.5434-40.103a71.857 71.857 0 0 0-2.7369-7.3658c-2.4404-5.5694-5.724-10.61-9.6388-15.269-4.3514-5.1755-9.536-9.8289-15.381-13.495a58.213 58.213 0 0 0-5.3592-2.9825v-0.0018a54.575 54.575 0 0 0-5.6776-2.3895l-7e-3 -0.0027c-22.326-7.927-44.906-2.2894-63.847 8.0125a128.25 128.25 0 0 0-10.63 6.489 140.08 140.08 0 0 0-9.6324 7.1593h-9.1e-4l-5e-3 6e-3a130.98 130.98 0 0 0-12.547 11.623 111.88 111.88 0 0 0-2.585 2.8306c-2.253 2.5541-5.7249 6.1351-4.6943 9.8371 0.81589 2.9361 4.6043 2.0711 5.9241 1.0597 2.0256-1.087 4.2505-2.8097 6.1542-4.4206 2.5778-2.1821 5.0127-4.5315 7.565-6.7436 10.324-8.9494 21.084-15.851 31.683-20.522a96.415 96.415 0 0 1 6.9283-2.7433 85.501 85.501 0 0 1 6.8464-2.0938l0.0109-3e-3c19.722-5.1209 41.154-1.8037 54.876 14.28 13.219 15.492 15.632 36.23 15.834 56.839m-142.25-17.514c1.2316-1.1497 2.4868-2.6496 3.7948-4.3105 1.8301-2.3212 2.0138-4.5688 1.2907-6.1915a4.2386 4.2386 0 0 0-1.1497-1.5308 4.0022 4.0022 0 0 0-1.6554-0.8259c-1.4917-0.3411-3.2754 0.19283-4.7898 2.0356-1.7127 2.0829-4.0776 5.6467-4.5606 8.7984a6.549 6.549 0 0 0-0.05367 1.7027c0.05912 0.52392 0.1992 1.0224 0.43478 1.4772l0.0018 5e-3 9.1e-4 -9.1e-4c0.38566 0.7404 1.036 1.1306 1.9038 1.1634q0.27196 9e-3 0.58486-0.0246 0.30562-0.0346 0.65672-0.11734l9.1e-4 2e-3 0.01092-3e-3c1.1679-0.28015 2.3358-1.066 3.5292-2.1794"/>
  <path d="m245 176.65 0.0819-2e-3h0.0409c1.1997 0.0655 3.2818-0.48662 4.4824-2.5123a6.1851 6.1851 0 0 0 0.60033-1.3935 8.3681 8.3681 0 0 0 0.31562-1.8228h9.1e-4l8e-3 -0.14008c0.9114-31.841-8.8411-58.199-25.398-76.107a80.953 80.953 0 0 0-10.402-9.4649 78.588 78.588 0 0 0-11.768-7.4185l-9.1e-4 9.09e-4 -0.0655-0.03274-2e-3 -0.0018c-13.917-7.112-29.7-9.8435-45.192-8.531a89.594 89.594 0 0 0-17.827 3.3491l-0.0409 0.01273c-15.932 4.7125-30.758 14.068-42.84 26.342a110.97 110.97 0 0 0-9.8135 11.418c8.4727-7.3103 17.563-13.723 27.071-18.817a122.79 122.79 0 0 1 6.4553-3.2236 113.7 113.7 0 0 1 6.5663-2.796l0.012-0.0054c8.4-3.2645 16.681-5.3465 24.963-6.277 8.2826-0.9305 16.571-0.70947 24.987 0.62852 5.9896 0.95324 11.836 2.5214 17.103 4.7153q1.5336 0.63852 3.0116 1.3553a51.846 51.846 0 0 1 2.8652 1.5008h2e-3l0.0145 0.0073-9.1e-4 9.09e-4c18.543 10.154 31.425 30.988 37.099 54.512a117.34 117.34 0 0 1 3.2618 28.247v2e-3l-3e-3 0.27378c0.0946 2.5477 0.96779 4.6789 2.464 5.6385 0.27833 0.17828 0.58031 0.31744 0.90139 0.40749h2e-3q0.49117 0.1419 1.0433 0.13462"/>
 </g>
 <path d="m211.85 70.537c44.582 14.725 76.801 56.65 76.989 106.12h-22.059c1.4599-43.21-17.398-82.212-54.93-106.12" fill="#fab60f"/>
 <path d="m82.406 211.35h-8.923l-2.2094 7.7742h-7.112l9.4096-29.773h9.0112l9.6743 29.773h-7.4213zm-7.907-5.0363h6.8464q-2.6933-8.7247-3.4891-11.972h-0.08914l-1.4135 5.6549zm40.683 5.0363h-8.9239l-2.2085 7.7742h-7.112l9.4087-29.773h9.0121l9.6743 29.773h-7.4213zm-7.9079-5.0363h6.8473q-2.6951-8.7247-3.49-11.972h-0.0882l-1.4135 5.6549zm24.559 12.679v-29.244q4.4178-0.66309 9.4533-0.66309 9.5215-2e-3 13.666 3.983c2.7606 2.6578 4.1377 6.1333 4.1377 10.418 0 5.0654-1.5681 8.9894-4.7125 11.773-3.1435 2.7824-7.9952 4.1741-14.548 4.1741q-4.5497 0-7.9961-0.44115m6.8473-24.385v19.393q0.57485 0.13189 2.474 0.13189c3.4009 0 6.0369-0.89776 7.8997-2.6869 1.8628-1.7892 2.7906-4.3514 2.7906-7.6941q2e-3 -4.5934-2.5477-7.002-2.5532-2.4077-7.3476-2.4077-2.0102 0-3.269 0.2656m27.739-5.2565h6.8473v11.441h11.706v-11.441h6.8473v29.773h-6.8473v-12.413h-11.706v12.413h-6.8473zm50.224 21.999h-8.923l-2.2085 7.7742h-7.1129l9.4096-29.773h9.0121l9.6743 29.773h-7.4213zm-7.907-5.0363h6.8473q-2.6951-8.7247-3.49-11.972h-0.0882l-1.4135 5.6549zm40.683 5.0363h-8.9239l-2.2085 7.7742h-7.112l9.4087-29.773h9.0121l9.6743 29.773h-7.4213zm-7.9079-5.0363h6.8473q-2.6951-8.7247-3.4901-11.972h-0.0882l-1.4135 5.6549zm24.559 12.811v-29.376q3.7557-0.66309 9.2332-0.66309 6.7582 0 9.718 2.2312 2.9607 2.2303 2.9598 6.3834c0 1.6491-0.493 3.1362-1.4872 4.4688a7.9497 7.9497 0 0 1-3.8575 2.8197v0.17646q2.7833 1.0387 4.0194 5.4775 2.2758 7.9961 2.474 8.4818h-6.9792q-0.88411-1.6554-2.1211-6.9356-0.61852-2.6496-1.6782-3.7102t-3.4018-1.0606h-2.1202v11.706zm6.7591-24.782v8.1726h2.827q2.5623-2e-3 4.0422-1.1634 1.4799-1.157 1.4799-3.1217c0-1.3107-0.44115-2.3267-1.3325-3.0407-0.89048-0.71402-2.1575-1.0669-3.7911-1.0669q-2.4077 0-3.2254 0.22011" fill="#d52736"/>
</svg>
